<svg id="レイヤー_1" data-name="レイヤー 1" xmlns="http://www.w3.org/2000/svg" width="342.8" height="64.42" viewBox="0 0 342.8 64.42"><defs><style>.cls-1{fill:#223e80;}.cls-2{fill:#fff;}.cls-3{fill:#e60012;}.cls-4{fill:#5bb947;}.cls-5{fill:#25a9e0;}</style></defs><rect class="cls-1" x="166.87" y="0.23" width="96.65" height="20.73"/><path class="cls-2" d="M202.16,22.89c.44,0,.53-.24.6-1.87a6.13,6.13,0,0,0,1.9.83c-.21,2.37-.75,3-2.3,3H200.7c-1.9,0-2.36-.63-2.36-2.5v-2H197c-.27,2.28-1.07,3.82-4.79,4.65A6,6,0,0,0,191,23.19c3-.53,3.52-1.37,3.72-2.79H193.1V11.8h9.59v8.6h-2.22v1.93c0,.51.08.56.55.56Zm-7.06-8.73h5.47V13.6H195.1Zm0,2.21h5.47v-.55H195.1Zm0,2.23h5.47v-.55H195.1Z" transform="translate(-7.41 -8.46)"/><path class="cls-2" d="M209.8,20.75a10.19,10.19,0,0,0-.47-.93V25h-2V20.71a10.84,10.84,0,0,1-1.19,2.1,11.44,11.44,0,0,0-.94-2,13.75,13.75,0,0,0,2-3.62h-1.63V15.26h1.78V14c-.5.07-1,.13-1.45.17a6.35,6.35,0,0,0-.56-1.58,19.12,19.12,0,0,0,4.28-1.06L211,13.1a14.23,14.23,0,0,1-1.63.47v1.69h1.2V15h3.11v-.32h-2.43V13.53h2.43v-.35H211V12h2.65v-.59h2.07V12h2.82v1.21h-2.82v.35h2.52v1.16h-2.52V15h3.07v1.26h-8.15v.92h-1.3v.23c.47.43,1.42,1.43,1.65,1.7Zm7.08,1.89c.79.48,1.65,1,2.17,1.38l-1.8,1c-.51-.43-1.48-1.16-2.28-1.69l.91-.65h-2.29l1,.65A13,13,0,0,1,211.06,25a13.81,13.81,0,0,0-1.26-1.29,12,12,0,0,0,2.56-1.11h-1v-6h6.76v6Zm-3.63-4.38h2.95v-.41h-2.95Zm0,1.57h2.95V19.4h-2.95Zm0,1.58h2.95V21h-2.95Z" transform="translate(-7.41 -8.46)"/><path class="cls-2" d="M221.82,15.52c-.2.18-.38.35-.58.5a13.33,13.33,0,0,0-1.7-1.36,8.2,8.2,0,0,0,2.93-3.28l2,.6a8.36,8.36,0,0,1-.46.83h8.37v1.82h-1.28v1.49h1.79V18h-1.79v1.47h1.58v1.85H220.16V19.43h1.66V18h-1.9V16.12h1.9Zm-2.07,8.66a7.22,7.22,0,0,0,1.53-2.77l2,.48A8.71,8.71,0,0,1,221.77,25Zm3.9-8.06h.7V14.63h-.7Zm0,3.31h.7V18h-.7Zm2.18,2.32a19,19,0,0,1,.37,2.76l-2,.3A20.24,20.24,0,0,0,223.9,22Zm.95-5.63V14.63h-.71v1.49ZM226.07,18v1.47h.71V18Zm2.59,3.75a15,15,0,0,1,.8,2.71l-2.09.4A15.48,15.48,0,0,0,226.7,22Zm.58-7.08h-.74v1.49h.74Zm0,3.33h-.74v1.47h.74Zm2.26,3.39a20.21,20.21,0,0,1,1.76,2.92l-2.14.7a19.71,19.71,0,0,0-1.62-3Z" transform="translate(-7.41 -8.46)"/><path class="cls-2" d="M246,21.15V25H244V21.51l-3.75.67L240,20.39l-1.17,1.52a15.4,15.4,0,0,0-.8-1.51v4.52h-1.91V20.3a15.36,15.36,0,0,1-1.46,3.24,13.07,13.07,0,0,0-.92-2.18,11.92,11.92,0,0,0,1.7-3.3H234V16.13h2.09V11.47H238v4a27.8,27.8,0,0,0,.67-3.34l1.73.35c-.37,1.21-.78,2.58-1.13,3.44L238,15.59v.54h2v1.93h-2v.06a26.48,26.48,0,0,1,2,2.1l4-.72V11.37H246v7.79l1.34-.24.3,1.93ZM234.51,16a14.44,14.44,0,0,0-.57-3.42l1.43-.37A14.59,14.59,0,0,1,236,15.6Zm6.5-.46a12.14,12.14,0,0,1,2.41,1.68l-1,1.66A12.41,12.41,0,0,0,240,17Zm1.84-.24a11,11,0,0,0-2.22-1.87l1-1.4a11.37,11.37,0,0,1,2.29,1.71Z" transform="translate(-7.41 -8.46)"/><path class="cls-2" d="M253.31,22.21a1.69,1.69,0,0,1,3.37,0,1.69,1.69,0,0,1-3.37,0Zm.21-6.92-.08-2.38h3.13l-.09,2.38-.58,4.51h-1.79Z" transform="translate(-7.41 -8.46)"/><path class="cls-3" d="M70.12,60.36v-11A9.86,9.86,0,0,1,72.31,43a6.11,6.11,0,0,1,5-2.71h6.19a6.37,6.37,0,0,1,5,2.71,9.91,9.91,0,0,1,2.19,6.44v11a10.12,10.12,0,0,1-2.06,6.31,6.66,6.66,0,0,1-5.15,2.84H77.33a6.11,6.11,0,0,1-5-2.71A10.18,10.18,0,0,1,70.12,60.36Zm4.63.9a4,4,0,0,0,1,2.45,2.52,2.52,0,0,0,1.94,1.16h5.54a2.33,2.33,0,0,0,1.93-1,4.09,4.09,0,0,0,.9-2.58V48.77a4.27,4.27,0,0,0-.9-2.71,2.52,2.52,0,0,0-1.93-1.16H77.72a2.33,2.33,0,0,0-1.94,1,4.86,4.86,0,0,0-1,2.84Z" transform="translate(-7.41 -8.46)"/><path class="cls-3" d="M106.32,40.39v29h-4.64V45H96.79V40.39Z" transform="translate(-7.41 -8.46)"/><path class="cls-3" d="M121.78,64.74h16v4.64H117.14V62.16a9.66,9.66,0,0,1,1.93-5.92,6.13,6.13,0,0,1,4.9-2.58h8.37c.78,0,1.12-.47,1-1.42V46.45a1.3,1.3,0,0,0-1-1.42h-9a1.25,1.25,0,0,0-1.42,1.42v5.28h-4.64V47.22a7.53,7.53,0,0,1,1.68-4.9,5.12,5.12,0,0,1,4-1.93h9.66a4.92,4.92,0,0,1,3.87,2.06A7.4,7.4,0,0,1,138,47.22V51.6a7.53,7.53,0,0,1-1.54,4.64,4.92,4.92,0,0,1-3.87,2.06h-8.24a2.29,2.29,0,0,0-1.94,1.16,3.85,3.85,0,0,0-.64,2.06Z" transform="translate(-7.41 -8.46)"/><path class="cls-3" d="M140.72,60.36v-11A9.91,9.91,0,0,1,142.91,43a6.12,6.12,0,0,1,5-2.71h6.19a6.35,6.35,0,0,1,5,2.71,9.91,9.91,0,0,1,2.19,6.44v11a10.12,10.12,0,0,1-2.06,6.31,6.63,6.63,0,0,1-5.15,2.84h-6.19a6.12,6.12,0,0,1-5-2.71A10.24,10.24,0,0,1,140.72,60.36Zm4.64.9a4,4,0,0,0,1,2.45,2.5,2.5,0,0,0,1.93,1.16h5.54a2.32,2.32,0,0,0,1.93-1,4.1,4.1,0,0,0,.91-2.58V48.77a4.28,4.28,0,0,0-.91-2.71,2.5,2.5,0,0,0-1.93-1.16h-5.54a2.32,2.32,0,0,0-1.93,1,4.8,4.8,0,0,0-1,2.84Z" transform="translate(-7.41 -8.46)"/><path class="cls-3" d="M168.81,52.89h11.08V56.5H168.81Z" transform="translate(-7.41 -8.46)"/><path class="cls-3" d="M208.87,40.26v4.9L196.51,69.51h-5.42L203.33,44.9H187.49V40.26Z" transform="translate(-7.41 -8.46)"/><path class="cls-3" d="M216.09,49.67h-4.64V48.25a8.77,8.77,0,0,1,1.8-5.54,6,6,0,0,1,4.64-2.45h7.73a6.21,6.21,0,0,1,4.51,1.93,6.81,6.81,0,0,1,1.93,5v2.32a7.07,7.07,0,0,1-1.8,5,7.06,7.06,0,0,1,1.8,4.77V62A7.62,7.62,0,0,1,230,67.7a5.93,5.93,0,0,1-4.38,1.81h-7.73a6.1,6.1,0,0,1-4.64-2.32,9.51,9.51,0,0,1-1.8-5.8V59.2h4.64v3.09a2.75,2.75,0,0,0,.64,1.81,1.64,1.64,0,0,0,1.42.77h7.34a1.85,1.85,0,0,0,1.42-.77,3.23,3.23,0,0,0,.52-1.81V59.07a3.2,3.2,0,0,0-.52-1.8,1.82,1.82,0,0,0-1.42-.77h-9.4V51.86h9.4a2,2,0,0,0,1.42-.65,3.85,3.85,0,0,0,.52-1.93V47.22a2.44,2.44,0,0,0-.52-1.55,1.85,1.85,0,0,0-1.42-.77h-7.34a1.64,1.64,0,0,0-1.42.77,2.75,2.75,0,0,0-.64,1.81Z" transform="translate(-7.41 -8.46)"/><path class="cls-3" d="M234.64,65.51V60.23l13.53-19.84h5.41V60.88H256v4.63h-2.45v3.87h-4.64V65.51Zm14.3-4.63V47.48l-8.89,13.4Z" transform="translate(-7.41 -8.46)"/><path class="cls-3" d="M263.12,52.89H274.2V56.5H263.12Z" transform="translate(-7.41 -8.46)"/><path class="cls-3" d="M288.63,40.26h7.6a5.64,5.64,0,0,1,4.63,2.06,7.56,7.56,0,0,1,1.94,4.9v2.7a6.32,6.32,0,0,1-1.94,4.64,5.74,5.74,0,0,1,1.94,4.77v3.35a6.83,6.83,0,0,1-2.06,5,6.11,6.11,0,0,1-4.51,1.81h-7.6a6,6,0,0,1-4.39-1.81,6.83,6.83,0,0,1-2.06-5V59.33A6.17,6.17,0,0,1,284,54.56a6.53,6.53,0,0,1-1.81-4.64v-2.7a7.51,7.51,0,0,1,1.81-4.9A5.43,5.43,0,0,1,288.63,40.26Zm.25,4.64a1.72,1.72,0,0,0-1.41.64,2.54,2.54,0,0,0-.65,1.68v2.45a2.87,2.87,0,0,0,.65,1.93,1.69,1.69,0,0,0,1.41.64h7.35a1.69,1.69,0,0,0,1.41-.64,3,3,0,0,0,.52-1.93V47.35a2.83,2.83,0,0,0-.52-1.81,1.72,1.72,0,0,0-1.41-.64Zm0,12a1.6,1.6,0,0,0-1.41.78,2.66,2.66,0,0,0-.65,1.8v2.83a2.7,2.7,0,0,0,.65,1.81,1.61,1.61,0,0,0,1.41.77h7.35c1.28,0,1.93-.86,1.93-2.58V59.46a3.1,3.1,0,0,0-.52-1.8,1.6,1.6,0,0,0-1.41-.78Z" transform="translate(-7.41 -8.46)"/><path class="cls-3" d="M311.94,40.39h8.25a5.75,5.75,0,0,1,4.25,1.68,7.49,7.49,0,0,1,2.06,5.54V62.16a7.35,7.35,0,0,1-2.06,5.42,5.82,5.82,0,0,1-4.25,1.8h-8.25a6.31,6.31,0,0,1-4.51-2.06q-1.8-1.8-1.8-5.54V59.46h4.64v2.83A2.24,2.24,0,0,0,311,64.1a1.85,1.85,0,0,0,1.29.64h7.6a1.85,1.85,0,0,0,1.42-.77,2.85,2.85,0,0,0,.52-1.81V58.3a5.53,5.53,0,0,1-1.94.39h-8a5.76,5.76,0,0,1-4.51-2.32,8.79,8.79,0,0,1-1.8-5.54V48.25a8.61,8.61,0,0,1,1.42-5A6,6,0,0,1,311.94,40.39Zm.39,4.64a1.87,1.87,0,0,0-1.42.77,2.27,2.27,0,0,0-.64,1.68V51.6a2.54,2.54,0,0,0,.64,1.67,2.15,2.15,0,0,0,1.42.78h7.6a1.84,1.84,0,0,0,1.42-.78,1.9,1.9,0,0,0,.52-1.67V47.48c0-1.63-.65-2.45-1.94-2.45Z" transform="translate(-7.41 -8.46)"/><path class="cls-3" d="M334,64.74h16v4.64H329.34V62.16a9.59,9.59,0,0,1,1.93-5.92,6.11,6.11,0,0,1,4.9-2.58h8.37c.77,0,1.12-.47,1-1.42V46.45a1.29,1.29,0,0,0-1-1.42h-9a1.25,1.25,0,0,0-1.41,1.42v5.28h-4.64V47.22a7.52,7.52,0,0,1,1.67-4.9,5.16,5.16,0,0,1,4-1.93h9.66a4.89,4.89,0,0,1,3.86,2.06,7.41,7.41,0,0,1,1.55,4.77V51.6a7.54,7.54,0,0,1-1.55,4.64,4.89,4.89,0,0,1-3.86,2.06h-8.25a2.28,2.28,0,0,0-1.93,1.16,3.85,3.85,0,0,0-.64,2.06Z" transform="translate(-7.41 -8.46)"/><rect class="cls-4" x="0.23" y="28.71" width="52.71" height="35.7"/><path class="cls-2" d="M47.35,69a10,10,0,0,1-8.9-5.54A11.16,11.16,0,0,1,39.6,51.63a19.79,19.79,0,0,1,3.75-3.92,25.22,25.22,0,0,0-9.1-1.52h-.54a25.64,25.64,0,0,0-9.15,1.52,20.38,20.38,0,0,1,3.77,3.91,11.11,11.11,0,0,1,1.11,11.8A9.91,9.91,0,0,1,19.92,69c-3.72-.24-6.83-2.71-8.31-6.6s-.92-8.31,1.52-11a24.54,24.54,0,0,1,4.21-3.72,24.79,24.79,0,0,0-9.67-1.43l0-3.45A26.7,26.7,0,0,1,21,45.47a28.45,28.45,0,0,1,12.7-2.73h.48a28.38,28.38,0,0,1,12.64,2.72,27.08,27.08,0,0,1,13.5-2.77v3.47a25.86,25.86,0,0,0-9.78,1.46,24.56,24.56,0,0,1,4.22,3.72c2.44,2.73,3,7.06,1.52,11S51.73,68.74,48,69ZM47,49.36a16.48,16.48,0,0,0-4.71,4.35,7.55,7.55,0,0,0-.87,8.11,6.67,6.67,0,0,0,6.43,3.71,6.38,6.38,0,0,0,5.44-4.43c1-2.7.68-5.67-.87-7.4A21.44,21.44,0,0,0,47,49.36Zm-26,0a21.41,21.41,0,0,0-5.42,4.33c-1.55,1.73-1.89,4.7-.87,7.4a6.38,6.38,0,0,0,5.44,4.43,6.65,6.65,0,0,0,6.4-3.74,7.59,7.59,0,0,0-.83-8.07A16.64,16.64,0,0,0,21,49.37Z" transform="translate(-7.41 -8.46)"/><rect class="cls-5" width="152.88" height="20.74"/><path class="cls-2" d="M25,20.25a16.31,16.31,0,0,1,2.1,4l-1.84.92A6.79,6.79,0,0,0,24.88,24c-1.57.42-3.16.85-4.47,1.18L19.82,23l1-.19v-10h5.75v7.35H22.78V22.4l1.2-.25c-.22-.39-.43-.75-.65-1.1Zm-2.23-5.5v.83h1.84v-.83Zm1.84,3.5v-.84H22.78v.84ZM33,21.47c0,1-.14,1.61-.72,2a3.72,3.72,0,0,1-2.15.44,7.41,7.41,0,0,0-.71-2.29,10.42,10.42,0,0,0,1.18,0c.17,0,.23-.06.23-.23V14.88H29.33V25.79H27.19v-13H33Z" transform="translate(-7.41 -8.46)"/><path class="cls-2" d="M46.28,13V25.64H44v-.95h-6v.95H35.89V13Zm-8.23,2.12V17.7h6V15.07Zm6,7.51V19.77h-6v2.81Z" transform="translate(-7.41 -8.46)"/><path class="cls-2" d="M54.79,16.75a19.87,19.87,0,0,1-1.12,4A14.37,14.37,0,0,1,55.09,23l-1.67,1.42a12,12,0,0,0-.85-1.58,9.55,9.55,0,0,1-2.76,2.83,11,11,0,0,0-1.4-1.64,7.55,7.55,0,0,0,2.91-3c-.73-1-1.54-2-2.3-2.83L50.49,17c.54.59,1.13,1.26,1.71,1.93a16.81,16.81,0,0,0,.56-2.49Zm7.44.46H60.79v6.07c0,1.13-.19,1.72-.79,2.07a5.7,5.7,0,0,1-2.74.45,8.45,8.45,0,0,0-.64-2.26c.74,0,1.51,0,1.77,0s.33-.07.33-.31V17.21H55.29v-1H48.85V14.28h2.38V12.16h2v2.12h2.55v.93h2.94V12.15h2.07v3.06h1.44Zm-5.6.94a10.86,10.86,0,0,1,1.58,3l-1.8.92A11.64,11.64,0,0,0,55,19Z" transform="translate(-7.41 -8.46)"/><path class="cls-2" d="M66.26,17.31c0,2.4-.25,6.16-1.58,8.46a10.14,10.14,0,0,0-1.82-1.18c1.21-2.07,1.3-5.16,1.3-7.28V13.73h5.06V12.15h2.19v1.58h5.07v2h-5.7a18.13,18.13,0,0,1,3.09,1.86l-1.51,1.55a17.22,17.22,0,0,0-3.47-2.25l1.17-1.16h-3.8Zm-.42,6.5a12.21,12.21,0,0,0,.92-4.37l1.89.4a14.15,14.15,0,0,1-1,4.8Zm9,.8a11,11,0,0,0-.49-2c-.19,2.29-.7,3-2.07,3H71c-1.68,0-2.09-.62-2.09-2.45V18.4h2.08v4.7c0,.54,0,.6.37.6h.75c.34,0,.42-.33.47-2.23a5.77,5.77,0,0,0,1.7.79,21,21,0,0,0-1-2.53L75.05,19a17.74,17.74,0,0,1,1.83,4.76Z" transform="translate(-7.41 -8.46)"/><path class="cls-2" d="M84.23,17a2,2,0,1,1-2,2A2,2,0,0,1,84.23,17Z" transform="translate(-7.41 -8.46)"/><path class="cls-2" d="M105.3,22.87h-4.78v2.95H98.37V22.87H92v-2h2.23V17.61c-.17.2-.35.41-.52.58a13.11,13.11,0,0,0-1.8-1.37,10.83,10.83,0,0,0,2.91-4.73l2.14.54a9.56,9.56,0,0,1-.39,1h7.93v2h-3.93v1.46h3.59v1.95h-3.59v1.78h4.78Zm-9.78-7.21a15.41,15.41,0,0,1-1,1.46h3.82V15.66Zm2.85,5.19V19.07H96.28v1.78Z" transform="translate(-7.41 -8.46)"/><path class="cls-2" d="M119.07,14.61v7.48h-2.2v-.68H114.1v4.41h-2.22V21.41h-2.76v.75H107V14.61h4.86V12.15h2.22v2.46Zm-7.19,4.74V16.66h-2.76v2.69Zm5,0V16.66H114.1v2.69Z" transform="translate(-7.41 -8.46)"/><path class="cls-2" d="M122.79,16.3a6.7,6.7,0,0,1-.59.51,13.68,13.68,0,0,0-1.71-1.37,8.28,8.28,0,0,0,3-3.29l2,.6a6.73,6.73,0,0,1-.46.83h8.42v1.83h-1.28v1.5H134v1.85h-1.8v1.49h1.58V22.1H121.12V20.25h1.67V18.76h-1.91V16.91h1.91ZM120.7,25a7.12,7.12,0,0,0,1.54-2.79l2.05.49a8.84,8.84,0,0,1-1.56,3.11Zm3.93-8.11h.71v-1.5h-.71Zm0,3.34h.71V18.76h-.71Zm2.19,2.33a16.82,16.82,0,0,1,.37,2.77l-2.06.31a20.64,20.64,0,0,0-.25-2.85Zm1-5.67v-1.5h-.72v1.5Zm-.72,1.85v1.49h.72V18.76Zm2.61,3.77a14.73,14.73,0,0,1,.8,2.74l-2.1.4a15.18,15.18,0,0,0-.67-2.8Zm.59-7.12h-.75v1.5h.75Zm0,3.35h-.75v1.49h.75Zm2.27,3.41a21.62,21.62,0,0,1,1.77,2.94l-2.16.71a19.38,19.38,0,0,0-1.62-3Z" transform="translate(-7.41 -8.46)"/><path class="cls-2" d="M145.7,17.58a13,13,0,0,0,3.19,4.91,7.31,7.31,0,0,0-1.55,1.68,13.34,13.34,0,0,1-2.46-3.85v5.5h-2.07V20.51a14.71,14.71,0,0,1-2.69,3.74,10.24,10.24,0,0,0-1.27-1.41v2.95h-2.07v-6.9a12.15,12.15,0,0,1-.88,1,16,16,0,0,0-1.21-2.25,14.54,14.54,0,0,0,3.51-5.39l2.09.67a23.88,23.88,0,0,1-1.44,3v6.49a13.72,13.72,0,0,0,3.21-4.78h-2.71v-2h3.46V12.4h2.07v3.16h3.55v2Z" transform="translate(-7.41 -8.46)"/></svg>